PathFileType	4	(X/Y/Z)	D:\TRACE\spot_10-12-23\spot_body_motion_3_5-platform.trc
DataRate	CameraRate	NumFrames	NumMarkers	Units	OrigDataRate	OrigDataStartFrame	OrigNumFrames
100.00	100.00	      36	5	mm	100.00	6126	      7000
Frame#	Time	Left_Front			Right_Front			Left_Aft			Right_Aft			Post			
		X1	Y1	Z1	X2	Y2	Z2	X3	Y3	Z3	X4	Y4	Z4	X5	Y5	Z5	

6126	61.250	-783.32458	40.30187	-632.57642	789.33301	44.35266	-625.65930	-699.94061	-18.21742	503.82550	717.38818	-17.49318	589.76617	-0.84038	792.74957	-912.84808	
6127	61.260	-783.55078	40.21575	-632.66809	789.18115	44.14734	-625.69403	-700.13171	-17.97186	503.77182	717.31116	-17.33676	589.76105	-0.91979	792.59088	-913.11102	
6128	61.270	-783.79083	40.07136	-632.69244	788.98663	43.93676	-625.71594	-700.29517	-17.85311	503.73926	717.18530	-17.18343	589.76685	-1.06478	792.27783	-913.58319	
6129	61.280	-783.87585	39.72487	-632.70337	788.79889	43.84050	-625.87500	-700.40588	-17.84032	503.71823	716.97894	-17.01416	589.75714	-1.17366	792.03198	-913.96545	
6130	61.290	-783.88568	39.31395	-632.71393	788.70038	43.71284	-625.93365	-700.57867	-17.60226	503.41525	716.76361	-16.91096	589.72766	-1.11253	791.75696	-914.28729	
6131	61.300	-783.90143	39.03885	-632.75659	788.54852	43.58410	-625.97766	-700.58832	-17.68092	503.70386	716.63037	-16.74022	589.69434	-1.35433	791.41693	-914.72388	
6132	61.310	-784.03345	38.94777	-632.87183	788.39697	43.37777	-626.06683	-700.81903	-17.35356	503.46759	716.50604	-16.56682	589.65131	-1.52376	791.10236	-915.03705	
6133	61.320	-784.25543	38.85610	-632.93530	788.29779	43.25935	-626.08710	-701.00854	-17.15428	503.40976	716.45752	-16.46157	589.58716	-1.76310	790.86890	-915.33972	
6134	61.330	-784.41888	38.73498	-633.10052	788.12659	43.08516	-626.21588	-701.04761	-17.16859	503.66022	716.35931	-16.30010	589.52466	-1.97829	790.67609	-915.50580	
6135	61.340	-784.67334	38.55750	-633.12653	788.06738	42.92133	-626.22229	-701.34033	-16.96784	503.33240	716.12921	-16.18482	589.46277	-2.11063	790.57080	-915.64166	
6136	61.350	-784.69623	38.42818	-633.18420	787.99048	42.74931	-626.28326	-701.26880	-17.05681	503.53229	715.97113	-15.95315	589.44196	-2.19462	790.40991	-915.72461	
6137	61.360	-784.76147	38.34372	-633.21161	787.77203	42.58128	-626.42828	-701.55444	-16.65621	503.21762	715.82184	-15.77613	589.36542	-2.27674	790.21759	-915.84558	
6138	61.370	-784.90021	38.30858	-633.35571	787.68958	42.34723	-626.58826	-701.65295	-16.39357	503.17456	715.68384	-15.58937	589.32874	-2.41654	789.92450	-915.98108	
6139	61.380	-784.99518	38.14135	-633.43182	787.59088	42.06601	-626.66754	-701.67761	-16.18330	503.17123	715.59650	-15.48549	589.27618	-2.51633	789.56439	-916.11383	
6140	61.390	-785.02850	37.81326	-633.45166	787.42804	41.78973	-626.66949	-701.74432	-16.08085	503.09094	715.47931	-15.37173	589.26501	-2.60113	789.14807	-916.34680	
6141	61.400	-785.10016	37.35605	-633.49030	787.30212	41.60248	-626.73035	-701.82770	-15.93648	503.10001	715.32214	-15.23390	589.15692	-2.53623	788.75519	-916.66528	
6142	61.410	-785.16699	37.13010	-633.56726	787.25006	41.33682	-626.82892	-701.91241	-15.80422	503.06021	715.24841	-15.13486	589.14752	-2.44982	788.50488	-916.97852	
6143	61.420	-785.26434	36.97335	-633.65204	787.23712	41.20984	-626.95300	-701.98840	-15.75509	503.06406	715.18549	-15.00687	589.11194	-2.53522	788.30347	-917.44849	
6144	61.430	-785.36188	36.75816	-633.64532	787.21594	41.03227	-626.96991	-702.05951	-15.62124	503.06247	715.14423	-14.86425	589.15601	-2.68662	788.14624	-917.96387	
6145	61.440	-785.44446	36.66291	-633.67169	787.20941	40.95138	-626.96753	-702.11462	-15.48506	503.00711	715.13556	-14.77938	589.07690	-2.84435	787.99237	-918.32178	
6146	61.450	-785.48920	36.55386	-633.69055	787.12134	40.85384	-626.89307	-702.21869	-15.40275	502.98340	714.98724	-14.57585	589.07147	-2.99630	787.67102	-918.62152	
6147	61.460	-785.59113	36.42449	-633.71625	787.12323	40.66679	-626.89496	-702.31232	-15.29917	502.92188	714.90057	-14.42244	589.04022	-3.11132	787.26825	-918.96387	
6148	61.470	-785.67444	36.17267	-633.80865	786.99237	40.45326	-626.97620	-702.38037	-15.16976	502.90387	714.89069	-14.27646	588.96851	-3.09882	786.94116	-919.17163	
6149	61.480	-785.75488	36.04043	-633.90314	786.90613	40.29085	-627.03125	-702.49890	-14.97703	502.82169	714.90643	-14.22317	588.89832	-3.04339	786.63959	-919.39270	
6150	61.490	-785.72742	35.96045	-633.94879	786.93988	40.04220	-627.10663	-702.57080	-14.82584	502.77383	714.87347	-14.05530	588.80841	-3.04335	786.42725	-919.58655	
6151	61.500	-785.71277	35.71508	-634.06006	786.87610	39.89919	-627.13965	-702.64069	-14.67778	502.71619	714.88062	-14.01765	588.73999	-3.01196	786.21729	-919.79431	
6152	61.510	-785.68109	35.40030	-634.23871	786.72974	39.71506	-627.29974	-702.71667	-14.55171	502.68018	714.80231	-13.69305	588.91211	-3.00107	785.98199	-919.90765	
6153	61.520	-785.90033	35.21166	-634.19330	786.77051	39.44318	-627.31042	-702.80103	-14.42184	502.62082	714.92096	-13.75410	588.48523	-3.10241	785.71613	-920.13513	
6154	61.530	-785.95227	35.02678	-634.20313	786.72864	39.27534	-627.39587	-702.85681	-14.27256	502.59689	714.89777	-13.74060	588.28839	-3.12475	785.54230	-920.28168	
6155	61.540	-786.00153	34.99416	-634.22662	786.72046	39.14897	-627.42584	-702.89270	-14.21299	502.49844	714.97040	-13.67079	588.18970	-3.17430	785.35590	-920.46063	
6156	61.550	-786.08417	34.93626	-634.23096	786.70074	39.02240	-627.43585	-702.94177	-14.06678	502.51712	714.91461	-13.56623	588.09314	-3.31393	785.15381	-920.62311	
6157	61.560	-786.09552	34.79510	-634.25378	786.56750	38.90231	-627.50171	-702.94458	-14.00369	502.46823	714.55688	-12.91723	588.78906	-3.48018	784.95007	-920.87329	
6158	61.570	-786.11200	34.66857	-634.25989	786.66461	38.86048	-627.43823	-702.95923	-13.93361	502.46426	714.52167	-12.75999	588.79980	-3.63636	784.77606	-921.06122	
6159	61.580	-786.17310	34.53304	-634.29755	786.56940	38.74319	-627.49115	-702.97723	-13.84865	502.44125	714.54248	-12.62967	588.75922	-3.64893	784.60406	-921.25781	
6160	61.590	-786.21777	34.44453	-634.31421	786.52148	38.65874	-627.48608	-703.02802	-13.75816	502.41592	714.53418	-12.54451	588.75568	-3.68206	784.43414	-921.53143	
6161	61.600	-786.24158	34.31357	-634.30304	786.45374	38.51020	-627.49060	-702.84595	-13.75928	502.31140	714.53992	-12.45797	588.72925	-3.76367	784.25146	-921.84161	
